<svg id="Layer_1" data-name="Layer 1" xmlns="http://www.w3.org/2000/svg" viewBox="0 0 157 154"><defs><style>.cls-1,.cls-2{fill:#2e3192;}.cls-1{stroke:#000;stroke-miterlimit:10;stroke-width:5px;}.cls-3{fill:red;}.cls-4{fill:#fff;}</style></defs><line class="cls-1" x1="23.5" y1="47" x2="23.5" y2="112.23"/><line class="cls-1" x1="40.67" y1="39.53" x2="124" y2="124"/><circle class="cls-2" cx="23.5" cy="130.5" r="23"/><path d="M363.5,400A22.5,22.5,0,1,1,341,422.5,22.52,22.52,0,0,1,363.5,400m0-1A23.5,23.5,0,1,0,387,422.5,23.5,23.5,0,0,0,363.5,399Z" transform="translate(-340 -292)"/><path class="cls-2" d="M363.5,338.5a23,23,0,1,1,23-23A23,23,0,0,1,363.5,338.5Z" transform="translate(-340 -292)"/><path d="M363.5,293A22.5,22.5,0,1,1,341,315.5,22.52,22.52,0,0,1,363.5,293m0-1A23.5,23.5,0,1,0,387,315.5,23.5,23.5,0,0,0,363.5,292Z" transform="translate(-340 -292)"/><path class="cls-2" d="M473.5,445.5a23,23,0,1,1,23-23A23,23,0,0,1,473.5,445.5Z" transform="translate(-340 -292)"/><path d="M473.5,400A22.5,22.5,0,1,1,451,422.5,22.52,22.52,0,0,1,473.5,400m0-1A23.5,23.5,0,1,0,497,422.5,23.5,23.5,0,0,0,473.5,399Z" transform="translate(-340 -292)"/><path class="cls-2" d="M473.5,338.5a23,23,0,1,1,23-23A23,23,0,0,1,473.5,338.5Z" transform="translate(-340 -292)"/><path d="M473.5,293A22.5,22.5,0,1,1,451,315.5,22.52,22.52,0,0,1,473.5,293m0-1A23.5,23.5,0,1,0,497,315.5,23.5,23.5,0,0,0,473.5,292Z" transform="translate(-340 -292)"/><line class="cls-1" x1="133.5" y1="107" x2="133.5" y2="47"/><path class="cls-3" d="M432.37,346.62v10.11h9.72v2.58h-9.72V369.5h-2.75V359.31H419.9v-2.58h9.72V346.62Z" transform="translate(-340 -292)"/><path d="M492.68,365.21V368H482.06v-2.79Z" transform="translate(-340 -292)"/><path d="M351.9,365.21V368H341.27v-2.79Z" transform="translate(-340 -292)"/><path class="cls-4" d="M359.46,427.15l-2.07,6.57h-2.67l6.78-20.9h3.11l6.8,20.9h-2.75l-2.13-6.57ZM366,425l-2-6c-.44-1.36-.74-2.6-1-3.81H363c-.3,1.24-.62,2.51-1,3.78L360,425Z" transform="translate(-340 -292)"/><path class="cls-4" d="M357,306.09a23.59,23.59,0,0,1,4.7-.44c2.58,0,4.23.47,5.48,1.52a4.48,4.48,0,0,1,1.65,3.69,4.92,4.92,0,0,1-3.37,4.59v.06a5.32,5.32,0,0,1,4.11,5.24,5.79,5.79,0,0,1-1.68,4.19c-1.39,1.33-3.64,1.95-6.9,1.95a29.7,29.7,0,0,1-4-.24Zm2.57,8.56h2.34c2.72,0,4.32-1.49,4.32-3.51,0-2.45-1.78-3.41-4.38-3.41a10.11,10.11,0,0,0-2.28.19Zm0,10a13.47,13.47,0,0,0,2.16.13c2.67,0,5.12-1,5.12-4.07,0-2.85-2.34-4-5.15-4h-2.13Z" transform="translate(-340 -292)"/><path class="cls-4" d="M481,433a12.23,12.23,0,0,1-5.27,1c-5.62,0-9.85-3.72-9.85-10.57,0-6.54,4.23-11,10.41-11a10.32,10.32,0,0,1,4.74.93l-.62,2.21a9,9,0,0,0-4-.87c-4.67,0-7.78,3.13-7.78,8.62,0,5.11,2.81,8.4,7.67,8.4a9.89,9.89,0,0,0,4.2-.87Z" transform="translate(-340 -292)"/><path class="cls-4" d="M467.49,306a36.29,36.29,0,0,1,5.48-.43c3.69,0,6.33.9,8.07,2.61s2.81,4.12,2.81,7.5a11.32,11.32,0,0,1-2.87,8.12c-1.86,2-4.94,3-8.81,3a38.58,38.58,0,0,1-4.68-.25Zm2.58,18.48a14.77,14.77,0,0,0,2.6.16c5.5,0,8.49-3.22,8.49-8.87,0-4.93-2.63-8.06-8.08-8.06a13.58,13.58,0,0,0-3,.28Z" transform="translate(-340 -292)"/></svg>